# xmcd
#
# Track frame offsets:
#	182
#	16355
#	36210
#	61227
#	81920
#	102445
#	130180
#	151662
#	173587
#
# Disc length: 2522 seconds
#
# Revision: 1
# Processed by: cddbd v1.5PL3 Copyright (c) Steve Scherf et al.
# Submitted via: CDex 1.50Beta5
#
DISCID=6509d809
DTITLE=Various Artist - Le Disque d'Or Du Rai
DYEAR=1900
DGENRE=
TTITLE0=Oulili
TTITLE1=Yam'safer
TTITLE2=Prophete
TTITLE3=Zina
TTITLE4=Ena Maghnaoui
TTITLE5=Taila
TTITLE6=El Ghorba
TTITLE7=Gouli Rani Nebrik
TTITLE8=Guelou Ness
EXTD=
EXTT0=
EXTT1=
EXTT2=
EXTT3=
EXTT4=
EXTT5=
EXTT6=
EXTT7=
EXTT8=
PLAYORDER=
